<?xml version="1.0" standalone="no"?>
<!DOCTYPE svg PUBLIC "-//W3C//DTD SVG 20010904//EN"
 "http://www.w3.org/TR/2001/REC-SVG-20010904/DTD/svg10.dtd">
<svg version="1.0" xmlns="http://www.w3.org/2000/svg"
 width="2476.000000pt" height="2476.000000pt" viewBox="0 0 2476.000000 2476.000000"
 preserveAspectRatio="xMidYMid meet">
<metadata>
Created by potrace 1.11, written by Peter Selinger 2001-2013
</metadata>
<g transform="translate(0.000000,2476.000000) scale(0.100000,-0.100000)"
fill="#000000" stroke="none">
<path d="M6077 18682 l-4377 -4377 1050 -1050 1050 -1050 4378 4378 4377 4377
-1050 1050 -1050 1050 -4378 -4378z"/>
<path d="M10803 12905 l-3851 -3852 1051 -1051 1051 -1051 3848 3849 c2116
2116 3848 3852 3848 3857 0 4 -472 479 -1048 1054 l-1047 1047 -3852 -3853z"/>
<path d="M5726 12730 l-1226 -1225 873 -873 c479 -479 875 -872 878 -872 4 0
556 550 1228 1221 1195 1195 1221 1222 1204 1242 -10 10 -403 405 -875 876
l-856 857 -1226 -1226z"/>
<path d="M16580 8175 l-4375 -4375 1050 -1050 1050 -1050 4378 4377 4377 4378
-1047 1047 c-577 577 -1050 1048 -1053 1048 -3 0 -1974 -1969 -4380 -4375z"/>
<path d="M10982 7478 c-672 -671 -1222 -1224 -1222 -1227 0 -3 393 -399 873
-879 l872 -872 1224 1224 c1069 1069 1223 1227 1211 1240 -15 19 -1731 1736
-1735 1736 -1 0 -552 -550 -1223 -1222z"/>
</g>
</svg>
